<svg width="13" height="17" viewBox="0 0 13 17" fill="none" xmlns="http://www.w3.org/2000/svg">
<path d="M12.682 1.45984C12.9359 1.35113 13.0535 1.05723 12.9448 0.803381C12.8361 0.549534 12.5422 0.431872 12.2884 0.540575L12.682 1.45984ZM3.38125 15.8086C3.54701 16.0295 3.86042 16.0741 4.08128 15.9084L7.6804 13.2072C7.90126 13.0414 7.94593 12.728 7.78017 12.5072C7.61441 12.2863 7.301 12.2416 7.08014 12.4074L3.88092 14.8084L1.47988 11.6092C1.31412 11.3884 1.0007 11.3437 0.779845 11.5094C0.558985 11.6752 0.514316 11.9886 0.680074 12.2095L3.38125 15.8086ZM12.2884 0.540575C9.45253 1.75495 7.38493 4.23015 5.94229 6.99387C4.49738 9.76195 3.65218 12.8697 3.28616 15.4379L4.27615 15.579C4.62958 13.0992 5.44649 10.1047 6.82878 7.45661C8.21334 4.80415 10.138 2.54923 12.682 1.45984L12.2884 0.540575Z" fill="white"/>
</svg>
